<svg width="197" height="34" viewBox="0 0 197 34" fill="none" xmlns="http://www.w3.org/2000/svg">
<path d="M0 0H34V34H0V0Z" fill="#F0F1F3"/>
<path d="M28.2782 16.9671C28.1923 21.8952 25.1656 26.4061 20.4676 28.0682C18.1771 28.8899 15.6887 28.9833 13.343 28.3358C10.9974 27.6882 8.90932 26.3314 7.36477 24.4511C5.82022 22.5708 4.89473 20.2589 4.71508 17.8322C4.53543 15.4055 5.11039 12.9826 6.36121 10.8953C7.63306 8.8074 9.51644 7.16134 11.7558 6.18046C13.9952 5.19958 16.4821 4.93136 18.8791 5.41221C24.3621 6.54685 28.1831 11.4381 28.2782 16.9671C28.2782 17.559 29.1982 17.559 29.1982 16.9671C29.1757 14.3751 28.3717 11.8501 26.8912 9.72238C25.4107 7.59463 23.3226 5.96312 20.8999 5.04115C18.4306 4.12704 15.7385 4.00174 13.195 4.68256C10.6514 5.36337 8.38183 6.81674 6.69932 8.84214C5.01681 10.8675 4.00429 13.3652 3.80147 15.9904C3.59865 18.6157 4.21552 21.2392 5.56696 23.499C6.9057 25.7004 8.87548 27.4483 11.2204 28.5158C13.5654 29.5833 16.1772 29.921 18.7165 29.485C24.7853 28.4178 29.0939 23.0451 29.2012 16.9641C29.2074 16.3753 28.2874 16.3753 28.2782 16.9671Z" fill="url(#paint0_linear_847_359)"/>
<path d="M2.15994 17.4271H31.0871C31.2091 17.4271 31.3261 17.3787 31.4124 17.2924C31.4987 17.2061 31.5471 17.0891 31.5471 16.9671C31.5471 16.8451 31.4987 16.7281 31.4124 16.6419C31.3261 16.5556 31.2091 16.5071 31.0871 16.5071H2.15994C2.03794 16.5071 1.92094 16.5556 1.83468 16.6419C1.74841 16.7281 1.69995 16.8451 1.69995 16.9671C1.69995 17.0891 1.74841 17.2061 1.83468 17.2924C1.92094 17.3787 2.03794 17.4271 2.15994 17.4271Z" fill="url(#paint1_linear_847_359)"/>
<path d="M47 27.5877V8.12048H53.8575C59.6416 8.12048 61.9374 10.506 61.9374 14.7764C61.9374 19.0174 59.7013 21.8447 53.4401 21.8447H52.0089V27.5877H47ZM53.6786 12.2731H52.0089V17.6627H53.4103C55.8253 17.6627 56.7197 16.8969 56.7197 14.9826C56.7197 12.921 55.6762 12.2731 53.6786 12.2731ZM77.2027 21.7564H68.3775C68.4967 23.7296 69.0632 24.5837 71.0012 24.5837C72.1938 24.5837 72.9094 24.2597 73.1181 23.1995L77.2027 23.9063C76.4275 26.4685 74.579 28 70.8521 28C66.201 28 63.5176 25.6145 63.5176 20.8728C63.5176 17.0442 65.2469 13.4217 70.6434 13.4217C75.0262 13.4217 77.2027 15.8072 77.2027 20.2544V21.7564ZM70.4645 16.6908C69.3315 16.6908 68.6756 17.2209 68.4371 18.9585H72.3131V18.929C72.3131 17.3092 71.6869 16.6908 70.4645 16.6908ZM79.6476 27.5877V13.834H83.9708V16.1901C84.6267 14.7175 85.7895 13.4217 87.6679 13.4217C89.8742 13.4217 90.5599 14.8648 90.5599 14.8648L87.7871 18.8112C87.7871 18.8112 87.4293 17.8394 86.4156 17.8394C85.3423 17.8394 84.7758 19.2236 84.2987 20.6667V27.5877H79.6476ZM90.9773 17.2798V13.834H92.7662V12.4203C92.7662 8.47389 94.9428 6 99.1765 6C102.546 6 103.738 7.56091 103.738 7.56091L100.906 10.7711C100.667 10.1232 100.041 9.74029 99.2063 9.74029C97.8348 9.74029 97.4174 10.83 97.4174 12.9799V13.834H100.667V17.2798H97.4174V27.5877H92.7662V17.2798H90.9773ZM115.456 21.7564H106.63C106.75 23.7296 107.316 24.5837 109.254 24.5837C110.447 24.5837 111.162 24.2597 111.371 23.1995L115.456 23.9063C114.68 26.4685 112.832 28 109.105 28C104.454 28 101.77 25.6145 101.77 20.8728C101.77 17.0442 103.5 13.4217 108.896 13.4217C113.279 13.4217 115.456 15.8072 115.456 20.2544V21.7564ZM108.717 16.6908C107.584 16.6908 106.928 17.2209 106.69 18.9585H110.566V18.929C110.566 17.3092 109.94 16.6908 108.717 16.6908ZM126.129 22.6988L130.453 23.5529C129.648 26.174 128.097 28 124.251 28C119.421 28 117.274 25.3199 117.274 20.6667C117.274 15.2182 120.315 13.4217 124.37 13.4217C128.187 13.4217 130.691 15.2182 130.363 18.34L125.801 19.253C126.07 17.3976 125.145 16.838 124.311 16.838C122.313 16.838 122.104 18.9585 122.104 20.9317C122.104 23.3762 122.701 24.5837 124.311 24.5837C125.444 24.5837 126.129 23.8768 126.129 22.6988ZM131.705 17.2798V13.834H133.464L133.732 10.0643H138.055V13.834H141.872V17.2798H138.055V23.1111C138.055 23.7885 138.264 24.2008 138.86 24.2008C139.606 24.2008 139.755 23.3762 139.815 22.5515L143.213 23.7296C142.617 26.0562 141.693 27.8822 138.294 27.8822C134.597 27.8822 133.404 25.5556 133.404 23.1111V17.2798H131.705ZM145.211 27.5877V8.12048H150.22V23.3467H157.942V27.5877H145.211ZM159.522 9.03347C159.522 7.61981 160.715 6.47122 162.146 6.47122C163.607 6.47122 164.77 7.61981 164.77 9.03347C164.77 10.4471 163.607 11.6252 162.146 11.6252C160.715 11.6252 159.522 10.4471 159.522 9.03347ZM159.821 27.5877V13.834H164.472V27.5877H159.821ZM167.572 27.5877V13.834H171.896V16.0134C172.253 15.1888 173.416 13.4217 176.517 13.4217C178.574 13.4217 180.959 14.2463 180.959 18.5462V27.5877H176.308V19.7242C176.308 18.1044 175.921 17.3092 174.967 17.3092C173.297 17.3092 172.462 19.6064 172.224 20.49V27.5877H167.572ZM197 21.7564H188.175C188.294 23.7296 188.86 24.5837 190.798 24.5837C191.991 24.5837 192.707 24.2597 192.915 23.1995L197 23.9063C196.225 26.4685 194.376 28 190.649 28C185.998 28 183.315 25.6145 183.315 20.8728C183.315 17.0442 185.044 13.4217 190.441 13.4217C194.823 13.4217 197 15.8072 197 20.2544V21.7564ZM190.262 16.6908C189.129 16.6908 188.473 17.2209 188.234 18.9585H192.11V18.929C192.11 17.3092 191.484 16.6908 190.262 16.6908Z" fill="white"/>
<defs>
<linearGradient id="paint0_linear_847_359" x1="3.76367" y1="4.25" x2="29.2013" y2="4.25" gradientUnits="userSpaceOnUse">
<stop stop-color="#6D7CFF"/>
<stop offset="1" stop-color="#FF51FF"/>
</linearGradient>
<linearGradient id="paint1_linear_847_359" x1="1.69995" y1="16.5071" x2="31.5471" y2="16.5071" gradientUnits="userSpaceOnUse">
<stop stop-color="#6D7CFF"/>
<stop offset="1" stop-color="#FF51FF"/>
</linearGradient>
</defs>
</svg>
