<svg width="25" height="24" viewBox="0 0 25 24" fill="none" xmlns="http://www.w3.org/2000/svg">
<g clip-path="url(#clip0_846_215)">
<path d="M15.3537 8.69531C15.0438 8.69531 14.7927 8.94692 14.7927 9.25737V19.8803C14.7927 20.1906 15.0438 20.4424 15.3537 20.4424C15.6635 20.4424 15.9146 20.1906 15.9146 19.8803V9.25737C15.9146 8.94692 15.6635 8.69531 15.3537 8.69531Z" fill="#DC3545"/>
<path d="M8.73452 8.69531C8.42469 8.69531 8.17358 8.94692 8.17358 9.25737V19.8803C8.17358 20.1906 8.42469 20.4424 8.73452 20.4424C9.04435 20.4424 9.29546 20.1906 9.29546 19.8803V9.25737C9.29546 8.94692 9.04435 8.69531 8.73452 8.69531Z" fill="#DC3545"/>
<path d="M3.91029 7.14503V20.993C3.91029 21.8115 4.20982 22.5801 4.73307 23.1317C5.25391 23.6847 5.97875 23.9987 6.73733 24H17.3504C18.1092 23.9987 18.8341 23.6847 19.3547 23.1317C19.8779 22.5801 20.1775 21.8115 20.1775 20.993V7.14503C21.2176 6.86839 21.8916 5.86152 21.7525 4.79207C21.6131 3.72284 20.704 2.923 19.6277 2.92278H16.7558V2.22021C16.759 1.62939 16.5259 1.06206 16.1085 0.644685C15.6911 0.227532 15.124 -0.00475634 14.5344 7.385e-05H9.55341C8.96377 -0.00475634 8.39669 0.227532 7.97928 0.644685C7.56186 1.06206 7.32872 1.62939 7.33201 2.22021V2.92278H4.46005C3.38376 2.923 2.47464 3.72284 2.33529 4.79207C2.19615 5.86152 2.87015 6.86839 3.91029 7.14503ZM17.3504 22.8759H6.73733C5.77826 22.8759 5.03217 22.0504 5.03217 20.993V7.19443H19.0556V20.993C19.0556 22.0504 18.3095 22.8759 17.3504 22.8759ZM8.45388 2.22021C8.45016 1.92754 8.56498 1.64585 8.77226 1.43925C8.97932 1.23265 9.26111 1.11914 9.55341 1.12419H14.5344C14.8267 1.11914 15.1084 1.23265 15.3155 1.43925C15.5228 1.64563 15.6376 1.92754 15.6339 2.22021V2.92278H8.45388V2.22021ZM4.46005 4.0469H19.6277C20.1854 4.0469 20.6374 4.49984 20.6374 5.05861C20.6374 5.61737 20.1854 6.07031 19.6277 6.07031H4.46005C3.9024 6.07031 3.45037 5.61737 3.45037 5.05861C3.45037 4.49984 3.9024 4.0469 4.46005 4.0469Z" fill="#DC3545"/>
<path d="M12.0441 8.69531C11.7343 8.69531 11.4832 8.94692 11.4832 9.25737V19.8803C11.4832 20.1906 11.7343 20.4424 12.0441 20.4424C12.3539 20.4424 12.605 20.1906 12.605 19.8803V9.25737C12.605 8.94692 12.3539 8.69531 12.0441 8.69531Z" fill="#DC3545"/>
</g>
<defs>
<clipPath id="clip0_846_215">
<rect width="23.9521" height="24" fill="white" transform="translate(0.0737305)"/>
</clipPath>
</defs>
</svg>
