<svg width="25" height="24" viewBox="0 0 25 24" fill="none" xmlns="http://www.w3.org/2000/svg">
<g clip-path="url(#clip0_846_209)">
<path d="M22.2665 15.0766C21.937 15.0766 21.67 15.3442 21.67 15.6743V20.9815C21.6688 21.9714 20.8684 22.7737 19.8804 22.7746H3.14232C2.15432 22.7737 1.3539 21.9714 1.35273 20.9815V5.40537C1.3539 4.41562 2.15432 3.61336 3.14232 3.6122H8.43887C8.76836 3.6122 9.0354 3.34462 9.0354 3.01447C9.0354 2.68456 8.76836 2.41675 8.43887 2.41675H3.14232C1.4958 2.41862 0.161532 3.75556 0.159668 5.40537V20.9817C0.161532 22.6315 1.4958 23.9684 3.14232 23.9703H19.8804C21.5269 23.9684 22.8612 22.6315 22.863 20.9817V15.6743C22.863 15.3442 22.596 15.0766 22.2665 15.0766Z" fill="#008F02"/>
<path d="M22.6265 0.878905C21.5782 -0.171549 19.8785 -0.171549 18.8302 0.878905L8.18766 11.5427C8.11473 11.6158 8.06206 11.7064 8.03457 11.8058L6.63505 16.8685C6.57749 17.0761 6.63598 17.2983 6.78791 17.4508C6.94007 17.603 7.16191 17.6616 7.36906 17.6042L12.4216 16.2017C12.5209 16.1741 12.6113 16.1213 12.6842 16.0483L23.3265 5.38425C24.3732 4.3331 24.3732 2.63145 23.3265 1.5803L22.6265 0.878905ZM9.48745 11.9312L18.1975 3.20349L21.0066 6.01817L12.2963 14.7459L9.48745 11.9312ZM8.92634 13.0594L11.1706 15.3083L8.06626 16.1701L8.92634 13.0594ZM22.483 4.53903L21.8503 5.17295L19.041 2.35804L19.6739 1.72412C20.2562 1.14064 21.2004 1.14064 21.7828 1.72412L22.483 2.42552C23.0644 3.0097 23.0644 3.95508 22.483 4.53903Z" fill="#008F02"/>
</g>
<defs>
<clipPath id="clip0_846_209">
<rect width="23.9521" height="24" fill="white" transform="translate(0.159668)"/>
</clipPath>
</defs>
</svg>
