<svg width="33" height="23" viewBox="0 0 33 23" fill="none" xmlns="http://www.w3.org/2000/svg">
<path d="M29.9062 0H3.09375C1.3851 0 0 1.28716 0 2.875V20.125C0 21.7128 1.3851 23 3.09375 23H29.9062C31.6149 23 33 21.7128 33 20.125V2.875C33 1.28716 31.6149 0 29.9062 0ZM29.9062 2.875V5.31905C28.4611 6.41269 26.1571 8.11325 21.2317 11.6974C20.1462 12.4908 17.9961 14.397 16.5 14.3748C15.0042 14.3972 12.8533 12.4905 11.7683 11.6974C6.84363 8.11379 4.53911 6.41287 3.09375 5.31905V2.875H29.9062ZM3.09375 20.125V9.00821C4.57063 10.1014 6.66503 11.6354 9.85733 13.9584C11.2661 14.9889 13.7332 17.2638 16.5 17.2499C19.2532 17.2638 21.6891 15.0219 23.1421 13.9588C26.3343 11.6359 28.4293 10.1015 29.9062 9.00827V20.125H3.09375Z" fill="black"/>
</svg>
