<svg width="30" height="30" viewBox="0 0 30 30" fill="none" xmlns="http://www.w3.org/2000/svg">
<path d="M15 0C23.2258 0 30 6.77419 30 15C30 23.2863 23.2258 30 15 30C6.71371 30 0 23.2863 0 15C0 6.77419 6.71371 0 15 0ZM24.8589 6.95565C24.6169 7.31855 22.5 10.0403 17.7218 11.9758C18.2056 12.9435 18.5081 13.6694 18.871 14.5161C23.1048 13.9718 27.3387 14.8185 27.7621 14.9395C27.7621 11.9153 26.6734 9.13306 24.8589 6.95565ZM23.4677 5.44355C20.3226 2.66129 16.0282 1.63306 11.9758 2.60081C12.3387 3.08468 14.6371 6.22984 16.754 10.1008C21.2903 8.40726 23.2258 5.80645 23.4677 5.44355ZM9.49597 3.44758C5.92742 5.14113 3.26613 8.46774 2.41935 12.3992C3.02419 12.4597 8.28629 12.4597 14.2742 10.8871C12.1573 7.07661 9.85887 3.93145 9.49597 3.44758ZM2.17742 15.0605C2.17742 18.3266 3.3871 21.3508 5.44355 23.5887C7.5 20.0806 11.7339 16.3306 16.3911 15C16.0282 14.2742 15.7258 13.5484 15.3024 12.8226C8.95161 14.7581 2.72177 14.6976 2.17742 14.6371C2.17742 14.8185 2.17742 14.9395 2.17742 15.0605ZM7.07661 25.1613C10.8871 28.125 15.8468 28.6089 19.9597 26.8548C19.7782 25.7056 19.0524 21.7742 17.2379 17.1169C12.0968 18.871 8.46774 22.4395 7.07661 25.1613ZM22.1371 25.6452C24.9798 23.7097 27.0363 20.625 27.6411 17.0565C27.1573 16.9355 23.6492 15.9073 19.6573 16.5121C21.2903 21.1694 22.0161 24.9194 22.1371 25.6452Z" fill="black"/>
</svg>
