<svg width="31" height="25" viewBox="0 0 31 25" fill="none" xmlns="http://www.w3.org/2000/svg">
<path d="M27.8454 6.20482C27.8454 6.50602 27.8454 6.74699 27.8454 7.04819C27.8454 15.4217 21.4755 25 9.76712 25C6.1272 25 2.79061 23.9759 0 22.1687C0.485323 22.2289 0.970646 22.2892 1.51663 22.2892C4.48924 22.2892 7.21918 21.2651 9.40313 19.5783C6.61252 19.5181 4.24658 17.7108 3.45793 15.1807C3.88258 15.241 4.24658 15.3012 4.67123 15.3012C5.21722 15.3012 5.82387 15.1807 6.3092 15.0602C3.39726 14.4578 1.21331 11.9277 1.21331 8.85542V8.79518C2.06262 9.27711 3.09393 9.51807 4.12524 9.57831C2.36595 8.43374 1.27397 6.50602 1.27397 4.33735C1.27397 3.13253 1.5773 2.04819 2.12329 1.14458C5.27789 4.93976 10.0098 7.46988 15.2877 7.77108C15.1663 7.28916 15.1057 6.80723 15.1057 6.3253C15.1057 2.83133 17.9569 0 21.4755 0C23.2955 0 24.9335 0.722892 26.1468 1.98795C27.5421 1.68675 28.9374 1.14458 30.1507 0.421687C29.6654 1.92771 28.6947 3.13253 27.3601 3.91566C28.634 3.79518 29.908 3.43373 31 2.95181C30.1507 4.21687 29.0587 5.3012 27.8454 6.20482Z" fill="black"/>
</svg>
