<svg width="232" height="53" viewBox="0 0 232 53" fill="none" xmlns="http://www.w3.org/2000/svg">
<g clip-path="url(#clip0_0_22)">
<path opacity="0.5" d="M1.99984 0.999947H230C230.552 0.999947 231 1.44781 231 1.9998V50.9999C231 51.552 230.552 51.9998 230 51.9998H1.99984C1.44762 51.9998 1 51.5521 1 50.9999V1.9998C1 1.44765 1.44764 0.999947 1.99984 0.999947Z" fill="black" fill-opacity="0.01" stroke="black" stroke-width="2"/>
<path d="M55.524 35.108C54.276 35.108 53.148 34.832 52.14 34.28C51.144 33.728 50.358 32.966 49.782 31.994C49.218 31.01 48.936 29.912 48.936 28.7C48.936 27.488 49.218 26.396 49.782 25.424C50.358 24.44 51.15 23.672 52.158 23.12C53.166 22.568 54.294 22.292 55.542 22.292C56.478 22.292 57.342 22.448 58.134 22.76C58.926 23.072 59.598 23.528 60.15 24.128L59.304 24.974C58.32 23.978 57.078 23.48 55.578 23.48C54.582 23.48 53.676 23.708 52.86 24.164C52.044 24.62 51.402 25.244 50.934 26.036C50.478 26.828 50.25 27.716 50.25 28.7C50.25 29.684 50.478 30.572 50.934 31.364C51.402 32.156 52.044 32.78 52.86 33.236C53.676 33.692 54.582 33.92 55.578 33.92C57.09 33.92 58.332 33.416 59.304 32.408L60.15 33.254C59.598 33.854 58.92 34.316 58.116 34.64C57.324 34.952 56.46 35.108 55.524 35.108ZM70.3938 35.108C69.1458 35.108 68.0118 34.832 66.9918 34.28C65.9838 33.716 65.1918 32.948 64.6158 31.976C64.0518 31.004 63.7698 29.912 63.7698 28.7C63.7698 27.488 64.0518 26.396 64.6158 25.424C65.1918 24.452 65.9838 23.69 66.9918 23.138C68.0118 22.574 69.1458 22.292 70.3938 22.292C71.6418 22.292 72.7638 22.568 73.7598 23.12C74.7678 23.672 75.5598 24.44 76.1358 25.424C76.7118 26.396 76.9998 27.488 76.9998 28.7C76.9998 29.912 76.7118 31.01 76.1358 31.994C75.5598 32.966 74.7678 33.728 73.7598 34.28C72.7638 34.832 71.6418 35.108 70.3938 35.108ZM70.3938 33.92C71.3898 33.92 72.2898 33.698 73.0938 33.254C73.8978 32.798 74.5278 32.174 74.9838 31.382C75.4398 30.578 75.6678 29.684 75.6678 28.7C75.6678 27.716 75.4398 26.828 74.9838 26.036C74.5278 25.232 73.8978 24.608 73.0938 24.164C72.2898 23.708 71.3898 23.48 70.3938 23.48C69.3978 23.48 68.4918 23.708 67.6758 24.164C66.8718 24.608 66.2358 25.232 65.7678 26.036C65.3118 26.828 65.0838 27.716 65.0838 28.7C65.0838 29.684 65.3118 30.578 65.7678 31.382C66.2358 32.174 66.8718 32.798 67.6758 33.254C68.4918 33.698 69.3978 33.92 70.3938 33.92ZM92.6754 22.4V35H91.5774L83.4774 24.776V35H82.1454V22.4H83.2434L91.3614 32.624V22.4H92.6754ZM101.396 23.552H96.968V22.4H107.156V23.552H102.728V35H101.396V23.552ZM118.713 31.634H111.693L110.181 35H108.795L114.555 22.4H115.869L121.629 35H120.225L118.713 31.634ZM118.227 30.554L115.203 23.786L112.179 30.554H118.227ZM131.17 35.108C129.922 35.108 128.794 34.832 127.786 34.28C126.79 33.728 126.004 32.966 125.428 31.994C124.864 31.01 124.582 29.912 124.582 28.7C124.582 27.488 124.864 26.396 125.428 25.424C126.004 24.44 126.796 23.672 127.804 23.12C128.812 22.568 129.94 22.292 131.188 22.292C132.124 22.292 132.988 22.448 133.78 22.76C134.572 23.072 135.244 23.528 135.796 24.128L134.95 24.974C133.966 23.978 132.724 23.48 131.224 23.48C130.228 23.48 129.322 23.708 128.506 24.164C127.69 24.62 127.048 25.244 126.58 26.036C126.124 26.828 125.896 27.716 125.896 28.7C125.896 29.684 126.124 30.572 126.58 31.364C127.048 32.156 127.69 32.78 128.506 33.236C129.322 33.692 130.228 33.92 131.224 33.92C132.736 33.92 133.978 33.416 134.95 32.408L135.796 33.254C135.244 33.854 134.566 34.316 133.762 34.64C132.97 34.952 132.106 35.108 131.17 35.108ZM143.085 23.552H138.657V22.4H148.845V23.552H144.417V35H143.085V23.552ZM165.08 35.108C163.448 35.108 162.176 34.64 161.264 33.704C160.352 32.768 159.896 31.406 159.896 29.618V22.4H161.228V29.564C161.228 31.028 161.558 32.12 162.218 32.84C162.878 33.56 163.832 33.92 165.08 33.92C166.34 33.92 167.3 33.56 167.96 32.84C168.62 32.12 168.95 31.028 168.95 29.564V22.4H170.246V29.618C170.246 31.406 169.79 32.768 168.878 33.704C167.978 34.64 166.712 35.108 165.08 35.108ZM179.894 35.108C178.958 35.108 178.058 34.958 177.194 34.658C176.342 34.358 175.682 33.962 175.214 33.47L175.736 32.444C176.192 32.9 176.798 33.272 177.554 33.56C178.31 33.836 179.09 33.974 179.894 33.974C181.022 33.974 181.868 33.77 182.432 33.362C182.996 32.942 183.278 32.402 183.278 31.742C183.278 31.238 183.122 30.836 182.81 30.536C182.51 30.236 182.138 30.008 181.694 29.852C181.25 29.684 180.632 29.504 179.84 29.312C178.892 29.072 178.136 28.844 177.572 28.628C177.008 28.4 176.522 28.058 176.114 27.602C175.718 27.146 175.52 26.528 175.52 25.748C175.52 25.112 175.688 24.536 176.024 24.02C176.36 23.492 176.876 23.072 177.572 22.76C178.268 22.448 179.132 22.292 180.164 22.292C180.884 22.292 181.586 22.394 182.27 22.598C182.966 22.79 183.566 23.06 184.07 23.408L183.62 24.47C183.092 24.122 182.528 23.864 181.928 23.696C181.328 23.516 180.74 23.426 180.164 23.426C179.06 23.426 178.226 23.642 177.662 24.074C177.11 24.494 176.834 25.04 176.834 25.712C176.834 26.216 176.984 26.624 177.284 26.936C177.596 27.236 177.98 27.47 178.436 27.638C178.904 27.794 179.528 27.968 180.308 28.16C181.232 28.388 181.976 28.616 182.54 28.844C183.116 29.06 183.602 29.396 183.998 29.852C184.394 30.296 184.592 30.902 184.592 31.67C184.592 32.306 184.418 32.888 184.07 33.416C183.734 33.932 183.212 34.346 182.504 34.658C181.796 34.958 180.926 35.108 179.894 35.108Z" fill="black"/>
</g>
<defs>
<clipPath id="clip0_0_22">
<rect width="232" height="53" fill="white"/>
</clipPath>
</defs>
</svg>
