<svg width="435" height="239" viewBox="0 0 435 239" fill="none" xmlns="http://www.w3.org/2000/svg">
<rect width="435" height="239" fill="#68478D"/>
<path d="M279.852 79.4903C279.396 105.643 263.333 129.583 238.4 138.404C226.245 142.765 213.038 143.261 200.59 139.824C188.142 136.388 177.06 129.187 168.863 119.208C160.666 109.229 155.755 96.9599 154.801 84.0812C153.848 71.2025 156.899 58.3439 163.537 47.2667C170.287 36.1863 180.282 27.4506 192.167 22.245C204.051 17.0394 217.249 15.616 229.97 18.1679C259.069 24.1895 279.347 50.1473 279.852 79.4903C279.852 82.6313 284.734 82.6313 284.734 79.4903C284.615 65.7342 280.348 52.3342 272.491 41.0421C264.634 29.7501 253.552 21.0916 240.695 16.1987C227.59 11.3474 213.303 10.6825 199.804 14.2956C186.306 17.9087 174.261 25.6218 165.332 36.3707C156.403 47.1196 151.029 60.3745 149.953 74.3069C148.876 88.2392 152.15 102.162 159.322 114.155C166.427 125.838 176.881 135.114 189.326 140.78C201.77 146.445 215.631 148.237 229.108 145.923C261.315 140.259 284.181 111.746 284.75 79.474C284.783 76.3493 279.9 76.3493 279.852 79.4903Z" fill="url(#paint0_linear_818_63)"/>
<path d="M141.241 81.9314H294.759C295.406 81.9314 296.027 81.6742 296.485 81.2164C296.943 80.7586 297.2 80.1377 297.2 79.4903C297.2 78.8428 296.943 78.2219 296.485 77.7641C296.027 77.3063 295.406 77.0491 294.759 77.0491H141.241C140.594 77.0491 139.973 77.3063 139.515 77.7641C139.057 78.2219 138.8 78.8428 138.8 79.4903C138.8 80.1377 139.057 80.7586 139.515 81.2164C139.973 81.6742 140.594 81.9314 141.241 81.9314Z" fill="url(#paint1_linear_818_63)"/>
<path d="M20 226.964V174.936H38.1038C53.3739 174.936 59.4347 181.311 59.4347 192.725C59.4347 204.059 53.5313 211.616 37.0018 211.616H33.2236V226.964H20ZM37.6315 186.034H33.2236V200.439H36.9231C43.2987 200.439 45.6601 198.392 45.6601 193.276C45.6601 187.766 42.9052 186.034 37.6315 186.034ZM99.7352 211.379H76.4365C76.7513 216.653 78.2469 218.936 83.3631 218.936C86.5116 218.936 88.4007 218.07 88.9517 215.236L99.7352 217.125C97.6887 223.973 92.8086 228.066 82.9696 228.066C70.6905 228.066 63.6064 221.691 63.6064 209.018C63.6064 198.786 68.1717 189.104 82.4186 189.104C93.9893 189.104 99.7352 195.48 99.7352 207.365V211.379ZM81.9463 197.841C78.9553 197.841 77.2236 199.258 76.5939 203.902H86.8265V203.823C86.8265 199.494 85.1735 197.841 81.9463 197.841ZM106.19 226.964V190.206H117.603V196.503C119.335 192.567 122.404 189.104 127.363 189.104C133.188 189.104 134.998 192.961 134.998 192.961L127.678 203.508C127.678 203.508 126.733 200.911 124.057 200.911C121.224 200.911 119.728 204.61 118.469 208.467V226.964H106.19ZM136.1 199.415V190.206H140.823V186.428C140.823 175.88 146.569 169.269 157.746 169.269C166.64 169.269 169.789 173.44 169.789 173.44L162.311 182.02C161.682 180.288 160.029 179.265 157.825 179.265C154.204 179.265 153.102 182.177 153.102 187.923V190.206H161.682V199.415H153.102V226.964H140.823V199.415H136.1ZM200.723 211.379H177.424C177.739 216.653 179.234 218.936 184.351 218.936C187.499 218.936 189.388 218.07 189.939 215.236L200.723 217.125C198.676 223.973 193.796 228.066 183.957 228.066C171.678 228.066 164.594 221.691 164.594 209.018C164.594 198.786 169.159 189.104 183.406 189.104C194.977 189.104 200.723 195.48 200.723 207.365V211.379ZM182.934 197.841C179.943 197.841 178.211 199.258 177.581 203.902H187.814V203.823C187.814 199.494 186.161 197.841 182.934 197.841ZM228.902 213.898L240.315 216.181C238.19 223.186 234.097 228.066 223.943 228.066C211.191 228.066 205.524 220.904 205.524 208.467C205.524 193.905 213.553 189.104 224.258 189.104C234.333 189.104 240.945 193.905 240.079 202.249L228.036 204.689C228.744 199.73 226.304 198.235 224.1 198.235C218.826 198.235 218.275 203.902 218.275 209.176C218.275 215.709 219.85 218.936 224.1 218.936C227.091 218.936 228.902 217.047 228.902 213.898ZM243.621 199.415V190.206H248.265L248.973 180.131H260.386V190.206H270.462V199.415H260.386V215C260.386 216.811 260.937 217.913 262.512 217.913C264.479 217.913 264.873 215.709 265.03 213.505L274.004 216.653C272.429 222.871 269.989 227.752 261.016 227.752C251.256 227.752 248.107 221.533 248.107 215V199.415H243.621ZM279.277 226.964V174.936H292.501V215.63H312.887V226.964H279.277ZM317.059 177.376C317.059 173.598 320.207 170.528 323.986 170.528C327.843 170.528 330.912 173.598 330.912 177.376C330.912 181.154 327.843 184.303 323.986 184.303C320.207 184.303 317.059 181.154 317.059 177.376ZM317.846 226.964V190.206H330.125V226.964H317.846ZM338.311 226.964V190.206H349.724V196.031C350.669 193.827 353.739 189.104 361.925 189.104C367.356 189.104 373.653 191.308 373.653 202.8V226.964H361.374V205.948C361.374 201.619 360.351 199.494 357.832 199.494C353.424 199.494 351.22 205.633 350.59 207.995V226.964H338.311ZM416 211.379H392.701C393.016 216.653 394.512 218.936 399.628 218.936C402.776 218.936 404.665 218.07 405.216 215.236L416 217.125C413.953 223.973 409.073 228.066 399.234 228.066C386.955 228.066 379.871 221.691 379.871 209.018C379.871 198.786 384.436 189.104 398.683 189.104C410.254 189.104 416 195.48 416 207.365V211.379ZM398.211 197.841C395.22 197.841 393.488 199.258 392.859 203.902H403.091V203.823C403.091 199.494 401.438 197.841 398.211 197.841Z" fill="white"/>
<defs>
<linearGradient id="paint0_linear_818_63" x1="149.752" y1="12" x2="284.75" y2="12" gradientUnits="userSpaceOnUse">
<stop stop-color="#6D7CFF"/>
<stop offset="1" stop-color="#FF51FF"/>
</linearGradient>
<linearGradient id="paint1_linear_818_63" x1="138.8" y1="77.0491" x2="297.2" y2="77.0491" gradientUnits="userSpaceOnUse">
<stop stop-color="#6D7CFF"/>
<stop offset="1" stop-color="#FF51FF"/>
</linearGradient>
</defs>
</svg>
