<svg width="271" height="151" viewBox="0 0 271 151" fill="none" xmlns="http://www.w3.org/2000/svg">
<path d="M143.575 150.735C139.525 150.104 135.791 147.843 133.687 144.792C127.902 136.22 130.585 125.439 139.63 121.284C143.154 119.654 150.201 119.548 153.304 121.126C155.302 122.125 159.352 125.807 159.352 126.701C159.352 126.911 158.931 127.385 158.353 127.648C157.564 128.068 156.933 127.753 154.934 125.859C151.779 122.914 149.623 122.231 145.52 122.704C137.737 123.545 133.582 128.121 133.582 135.694C133.582 142.846 138.315 147.527 146.152 148.106C150.359 148.369 152.62 147.422 156.039 144.056C157.459 142.636 158.458 142.005 159.036 142.215C160.509 142.794 159.931 144.319 157.459 146.633C153.409 150.367 149.202 151.577 143.575 150.735Z" fill="#001871"/>
<path d="M0 120.337H7.25762C15.2515 120.337 19.5114 121.126 22.3514 123.02C24.1921 124.282 25.7698 127.227 25.7698 129.488C25.7698 131.487 24.3498 134.327 22.6143 135.799C20.3003 137.745 17.4604 138.376 9.72942 138.692L2.89253 139.007L2.73476 144.95C2.57698 150.84 2.57698 150.84 1.31479 150.84H0V120.337ZM17.3552 135.273C20.1425 134.484 21.9306 132.802 22.5617 130.435C22.9825 129.12 22.8247 128.436 21.9306 127.069C19.9322 124.124 17.5656 123.335 9.62424 123.072L2.62957 122.809V136.167L8.83537 136.062C12.2012 136.01 16.0404 135.642 17.3552 135.273Z" fill="#001871"/>
<path d="M29.7141 150.42C29.5564 150.262 29.4512 143.425 29.4512 135.221V120.337H39.7065C48.4893 120.337 49.9618 120.443 49.9618 121.126C49.9618 121.547 49.9618 122.073 49.9618 122.336C49.9618 122.546 46.0175 122.809 41.2317 122.967L32.5015 123.23V133.222L46.8064 133.538V136.115H32.6592L32.3437 147.685H50.5404L50.3826 149.158L50.2248 150.577L40.1272 150.63C34.5525 150.63 29.8719 150.525 29.7141 150.42Z" fill="#001871"/>
<path d="M55.5891 150.525C55.3787 150.315 55.2209 143.425 55.2209 135.221V120.337H62.5838C71.3665 120.337 74.522 120.916 77.4671 123.177C79.1501 124.492 79.7286 125.334 80.0967 127.017C80.9908 131.645 78.3612 135.799 73.628 137.219C72.4709 137.587 71.5243 138.008 71.5243 138.219C71.5243 138.376 74.2591 141.111 77.5723 144.214C80.8856 147.369 83.4626 150.104 83.3048 150.367C82.253 152.155 78.4664 149.473 69.7888 140.743L67.2118 138.219H57.9031L57.7453 144.372C57.6402 149.473 57.4298 150.577 56.7987 150.735C56.3254 150.788 55.7994 150.735 55.5891 150.525ZM73.8909 134.169C76.2049 132.959 76.9938 131.908 77.5197 129.436C77.8353 128.068 77.6249 127.49 76.3101 125.965C74.3117 123.703 71.051 122.967 63.2674 122.967H57.8505V135.694L64.8452 135.484C70.6302 135.326 72.1554 135.063 73.8909 134.169Z" fill="#001871"/>
<path d="M87.3018 120.337H107.812V122.967H89.8787L90.1943 133.222L97.2941 133.485C102.501 133.696 104.394 133.906 104.341 134.432C104.289 134.747 104.236 135.326 104.236 135.589C104.184 135.904 101.344 136.115 97.0312 136.115H89.9313V150.84H87.3018V120.337Z" fill="#001871"/>
<path d="M110.653 150.367C110.547 150.262 110.442 143.425 110.442 135.221V120.337H130.953V122.967H113.019L113.335 133.222L127.797 133.538V136.115H113.072V147.685H131.531L131.374 149.158L131.216 150.577H121.066C115.491 150.577 110.81 150.525 110.653 150.367Z" fill="#001871"/>
<path d="M167.977 150.104C167.819 149.736 167.767 143.478 167.872 136.22L168.03 123.02L162.245 122.862C156.723 122.704 156.46 122.651 156.302 121.547L156.144 120.337H182.492V122.967H170.922V150.84H169.607C168.871 150.84 168.135 150.525 167.977 150.104Z" fill="#001871"/>
<path d="M111.594 98.3987C98.9193 96.558 89.8736 88.3011 86.5603 75.574C83.9833 65.6342 87.0336 55.3263 94.712 47.7531C100.813 41.7577 106.966 39.2859 115.801 39.3385C120.692 39.3385 125.899 40.3903 127.266 41.6525C127.476 41.8629 126.635 43.2828 125.268 44.8606C122.533 48.0686 119.64 53.3804 118.063 58.1136C116.485 62.8994 116.485 74.0488 118.115 79.2028C119.956 85.093 122.848 90.2996 126.425 94.2439C127.108 94.9802 127.634 95.7165 127.634 95.8743C127.634 96.6632 116.748 99.2401 115.012 98.9246C114.855 98.872 113.329 98.6616 111.594 98.3987Z" fill="#001871"/>
<path d="M87.0861 38.6547C85.6135 34.6578 85.4557 26.0854 86.8231 21.5625C89.1897 13.779 94.6067 7.20503 101.707 3.47104C106.703 0.788873 110.016 0 115.696 0C123.059 0.0525915 131.368 3.41845 136.206 8.41464C144.358 16.6715 147.146 28.2942 143.622 39.0755C142.728 41.7576 142.255 42.1258 141.098 41.0213C137.784 37.8133 131.841 34.3422 127.108 32.8171C119.693 30.3979 110.016 30.4505 103.021 32.9223C99.6554 34.1319 93.9756 37.3925 91.3986 39.654C90.1364 40.7584 88.9268 41.6524 88.6638 41.6524C88.4535 41.6524 87.7698 40.2851 87.0861 38.6547Z" fill="#001871"/>
<path d="M185.21 150.46C185.105 150.355 185 143.518 185 135.314V120.431H187.63L187.682 133.473C187.735 140.626 187.735 146.779 187.682 147.147C187.63 147.62 189.786 147.778 196.991 147.778C205.353 147.778 206.51 147.883 206.773 148.672C206.983 149.146 206.931 149.724 206.668 149.987C206.247 150.408 185.631 150.881 185.21 150.46Z" fill="#68478D"/>
<path d="M208.929 120.431H211.822V150.829H209.245L208.929 120.431Z" fill="#68478D"/>
<path d="M218.396 150.618C217.817 150.355 217.712 121.167 218.343 120.588C219.342 119.589 221.919 122.008 228.23 129.95C232.069 134.788 236.119 139.732 237.171 140.994C238.223 142.256 239.59 143.886 240.221 144.623L241.273 145.937L241.063 136.734C240.905 131.685 240.957 125.953 241.115 124.007C241.378 120.694 241.536 120.431 242.64 120.431H243.902V135.682C243.902 150.04 243.85 150.934 242.956 150.934C241.799 150.934 240.221 149.251 233.595 140.941C227.915 133.841 227.967 133.894 223.813 128.898L221.025 125.585L220.867 138.259C220.762 149.882 220.657 150.934 219.816 150.881C219.342 150.881 218.711 150.776 218.396 150.618Z" fill="#68478D"/>
<path d="M249.898 150.145C249.74 149.829 249.74 143.097 249.793 135.156L249.95 120.694L260.101 120.536C268.831 120.431 270.198 120.536 270.198 121.219C270.198 121.64 270.198 122.166 270.198 122.429C270.198 122.639 266.254 122.902 261.415 123.06L252.58 123.323L252.685 133.315L267.043 133.631V136.155L252.58 136.471L252.475 147.778L261.468 147.883C270.409 148.041 270.461 148.041 270.461 149.251V150.46L260.258 150.565C253.737 150.618 250.003 150.46 249.898 150.145Z" fill="#68478D"/>
<path d="M151.3 98.609C150.301 98.5038 148.145 98.0305 146.567 97.5572C136.417 94.5595 129.422 87.67 126.109 77.4147C124.321 72.0503 124.584 64.6349 126.74 58.3765L127.424 56.4307L129.58 58.3765C132.525 61.1113 138.205 64.3194 142.57 65.7393C154.666 69.7363 169.024 67.1067 178.438 59.1654C179.91 57.9032 181.278 56.904 181.435 56.904C181.593 56.904 182.224 58.4817 182.908 60.4276C184.538 65.3712 184.538 72.5762 182.908 77.7828C180.12 86.6182 172.6 94.4017 164.185 97.0313C161.451 97.9253 155.297 99.0298 153.93 98.872C153.509 98.8194 152.3 98.7142 151.3 98.609Z" fill="#68478D"/>
<path d="M150.512 59.1653C148.303 58.9549 143.412 57.535 142.781 56.9565C142.57 56.7461 143.464 55.3261 144.779 53.7484C147.935 49.8566 149.933 46.07 151.669 40.6531C152.931 36.7613 153.141 35.2362 153.141 29.5563C153.141 23.7712 152.983 22.4565 151.669 18.5647C150.038 13.4633 147.829 9.3086 144.937 5.83756C143.78 4.47019 142.886 3.1554 142.886 2.83985C142.886 0.683599 156.98 -0.736371 162.24 0.893965C168.971 2.99762 173.862 6.15311 177.386 10.7286C182.54 17.4077 184.065 21.615 184.065 29.5563C184.065 38.2339 181.435 44.6501 175.493 50.5929C171.653 54.4321 168.34 56.5357 163.659 57.9557C160.346 59.0075 154.088 59.586 150.512 59.1653Z" fill="#68478D"/>
</svg>
